<svg width="317" height="50" viewBox="0 0 317 50" fill="none" xmlns="http://www.w3.org/2000/svg">
<g clip-path="url(#clip0_1092_1810)">
<path d="M71.7068 8.37689C73.9668 8.18553 75.6482 6.25024 75.4622 4.05432C75.2763 1.85839 73.2935 0.233377 71.0335 0.424742C68.7735 0.616108 67.0921 2.55139 67.2781 4.74731C67.464 6.94324 69.4468 8.56826 71.7068 8.37689Z" fill="url(#paint0_linear_1092_1810)"/>
<path d="M101.994 26.6637C78.7899 59.2911 62.9063 44.3 51.207 36.6815C53.8974 33.7648 57.5708 29.5999 59.1941 27.789C75.9314 39.7729 85.5935 31.8505 90.7608 16.7817L101.994 26.6637Z" fill="url(#paint1_linear_1092_1810)"/>
<path d="M88.1999 14.4725C88.0641 15.8048 87.6372 17.0012 86.9905 18.3335C76.7722 9.45393 70.2338 15.2809 59.5887 27.3618C55.0616 32.4968 48.3809 40.1735 42.1659 45.6383C30.3631 56.0118 8.4003 46.1945 10.9225 30.6213C20.2742 41.3634 27.2912 42.6245 41.1958 31.0675C53.697 20.6811 68.1126 -3.14431 88.1999 14.4725Z" fill="url(#paint2_linear_1092_1810)"/>
<path d="M49.6885 21.7162C46.6876 24.5683 41.1064 29.9232 41.1064 29.9232C41.1064 29.9232 23.1597 16.4001 19.4411 34.7413C17.7014 33.6871 12.8574 29.0436 11.7773 27.2134C19.3893 9.57069 35.1436 10.5214 49.6885 21.7162Z" fill="url(#paint3_linear_1092_1810)"/>
<path d="M123.071 39.8627C123.012 40.2363 122.881 40.564 122.665 40.8524C122.449 41.1408 122.187 41.3703 121.852 41.5341C121.518 41.698 121.144 41.7832 120.718 41.7832C120.292 41.7832 119.945 41.698 119.663 41.5341C119.381 41.3703 119.191 41.1408 119.073 40.8524C118.955 40.564 118.929 40.2297 118.988 39.8627L119.814 34.8877H118.89L118.057 39.9413C117.972 40.4592 118.018 40.9245 118.195 41.3375C118.372 41.7439 118.66 42.065 119.067 42.301C119.473 42.537 119.971 42.655 120.574 42.655C121.177 42.655 121.715 42.537 122.2 42.301C122.685 42.065 123.085 41.7439 123.393 41.3375C123.707 40.9311 123.904 40.4657 123.989 39.9413L124.822 34.8877H123.897L123.071 39.8627Z" fill="#1F2133"/>
<path d="M129.816 36.9591C129.554 36.8018 129.226 36.7231 128.846 36.7231C128.414 36.7231 128.047 36.8149 127.739 36.9919C127.437 37.1689 127.195 37.4048 127.011 37.6932H126.939L127.09 36.8018H126.244L125.287 42.524H126.165L126.729 39.0828C126.788 38.7485 126.9 38.4667 127.063 38.2307C127.227 37.9947 127.43 37.8178 127.673 37.6998C127.916 37.5753 128.178 37.5163 128.46 37.5163C128.866 37.5163 129.167 37.6408 129.358 37.8964C129.548 38.1521 129.607 38.4995 129.535 38.9452L128.938 42.5175H129.816L130.426 38.8796C130.505 38.3946 130.492 37.9882 130.38 37.6736C130.269 37.3524 130.085 37.1164 129.816 36.9591Z" fill="#1F2133"/>
<path d="M131.422 42.5173H132.3L133.572 34.8877H132.687L131.422 42.5173Z" fill="#1F2133"/>
<path d="M138.762 37.3524C138.559 37.1295 138.323 36.9722 138.048 36.8673C137.772 36.769 137.484 36.7166 137.189 36.7166C136.671 36.7166 136.206 36.8411 135.773 37.0967C135.347 37.3458 134.987 37.6998 134.698 38.1455C134.41 38.5912 134.22 39.109 134.122 39.6989C134.023 40.2823 134.043 40.8001 134.187 41.2393C134.331 41.6784 134.58 42.0258 134.934 42.2683C135.288 42.5109 135.747 42.6354 136.291 42.6354C136.678 42.6354 137.038 42.5764 137.366 42.4519C137.694 42.3273 137.982 42.1635 138.231 41.9472C138.48 41.7309 138.67 41.4752 138.808 41.1868L138.002 40.9509C137.897 41.1475 137.766 41.3179 137.609 41.449C137.451 41.5801 137.274 41.6784 137.078 41.7505C136.881 41.8161 136.665 41.8488 136.429 41.8488C136.062 41.8488 135.754 41.7899 135.505 41.6653C135.255 41.5408 135.085 41.3376 134.987 41.0623C134.888 40.787 134.882 40.4199 134.947 39.9611H139.11L139.169 39.5875C139.26 39.0566 139.26 38.6043 139.182 38.2372C139.103 37.8702 138.959 37.5818 138.762 37.3589V37.3524ZM138.336 39.1942H135.079C135.131 38.9386 135.242 38.6961 135.413 38.447C135.603 38.1782 135.845 37.9554 136.127 37.7784C136.416 37.6014 136.717 37.5097 137.051 37.5097C137.386 37.5097 137.635 37.5818 137.845 37.7325C138.054 37.8833 138.199 38.0799 138.29 38.329C138.376 38.5846 138.389 38.873 138.336 39.1942Z" fill="#1F2133"/>
<path d="M144.466 37.0508C144.263 36.9132 144.047 36.828 143.817 36.7821C143.588 36.7362 143.378 36.7166 143.194 36.7166C142.906 36.7166 142.605 36.7559 142.296 36.8345C141.988 36.9132 141.687 37.0508 141.405 37.2409C141.123 37.4376 140.881 37.7063 140.677 38.0537L141.451 38.3552C141.582 38.1455 141.792 37.9488 142.074 37.7653C142.355 37.5818 142.703 37.49 143.122 37.49C143.542 37.49 143.804 37.5949 143.961 37.7981C144.119 38.0013 144.165 38.2897 144.106 38.6502V38.6829C144.079 38.8206 144.014 38.9189 143.902 38.9779C143.791 39.0369 143.627 39.0762 143.404 39.1024C143.181 39.1287 142.9 39.1614 142.546 39.2073C142.277 39.2401 142.002 39.286 141.733 39.345C141.457 39.404 141.208 39.4892 140.972 39.6072C140.736 39.7251 140.54 39.889 140.376 40.0922C140.212 40.2954 140.101 40.5641 140.042 40.8919C139.983 41.2655 140.015 41.5801 140.153 41.8423C140.284 42.1045 140.487 42.3011 140.763 42.4453C141.038 42.583 141.353 42.6485 141.72 42.6485C142.054 42.6485 142.342 42.5961 142.591 42.4978C142.841 42.3994 143.044 42.2749 143.208 42.1373C143.371 41.9996 143.489 41.862 143.568 41.7374H143.614L143.483 42.5109H144.361L144.99 38.7419C145.063 38.2897 145.049 37.9226 144.945 37.6539C144.84 37.3851 144.689 37.1819 144.486 37.0443L144.466 37.0508ZM143.804 40.4462C143.765 40.6821 143.666 40.9115 143.503 41.1278C143.345 41.3441 143.129 41.5211 142.873 41.6588C142.611 41.7964 142.303 41.862 141.956 41.862C141.608 41.862 141.333 41.7833 141.13 41.626C140.933 41.4687 140.861 41.2393 140.913 40.9377C140.946 40.7149 141.038 40.5379 141.182 40.4068C141.326 40.2757 141.503 40.1774 141.713 40.1119C141.923 40.0463 142.146 40.0004 142.375 39.9677C142.467 39.9546 142.591 39.9414 142.749 39.9218C142.906 39.9021 143.063 39.8825 143.227 39.8562C143.391 39.83 143.542 39.7972 143.673 39.7645C143.804 39.7317 143.896 39.6858 143.935 39.6465L143.798 40.4527L143.804 40.4462Z" fill="#1F2133"/>
<path d="M147.895 37.7194C148.15 37.5621 148.459 37.4769 148.806 37.4769C149.062 37.4769 149.271 37.5162 149.416 37.5948C149.566 37.6735 149.678 37.7784 149.75 37.9029C149.822 38.0274 149.874 38.1585 149.907 38.2896L150.74 38.0668C150.661 37.6604 150.49 37.3261 150.209 37.0836C149.927 36.8345 149.507 36.71 148.937 36.71C148.531 36.71 148.164 36.7821 147.823 36.9197C147.482 37.0639 147.2 37.254 146.977 37.5031C146.754 37.7522 146.61 38.034 146.558 38.3617C146.492 38.755 146.558 39.0827 146.761 39.3449C146.964 39.6071 147.318 39.7972 147.823 39.9283L148.734 40.1512C149.016 40.2167 149.212 40.3216 149.33 40.4527C149.448 40.5903 149.481 40.7542 149.448 40.9574C149.409 41.2065 149.258 41.4162 148.983 41.5866C148.708 41.7636 148.367 41.8488 147.96 41.8488C147.6 41.8488 147.325 41.7702 147.128 41.6128C146.931 41.4555 146.82 41.2261 146.8 40.9246L145.922 41.1344C145.948 41.6194 146.125 41.9865 146.466 42.2421C146.807 42.4977 147.272 42.6223 147.856 42.6223C148.295 42.6223 148.701 42.5502 149.062 42.3994C149.422 42.2486 149.717 42.0455 149.946 41.7898C150.176 41.5342 150.32 41.2392 150.372 40.9115C150.438 40.5117 150.372 40.1839 150.156 39.9283C149.946 39.6792 149.599 39.4891 149.107 39.358L148.288 39.1483C147.967 39.0696 147.738 38.9582 147.6 38.8337C147.462 38.7026 147.416 38.5322 147.449 38.3159C147.488 38.0668 147.633 37.8701 147.895 37.7063V37.7194Z" fill="#1F2133"/>
<path d="M156.015 36.9524C155.746 36.7951 155.418 36.7164 155.031 36.7164C154.579 36.7164 154.199 36.8017 153.904 36.9786C153.602 37.1556 153.367 37.385 153.19 37.6865H153.117L153.583 34.8877H152.704L151.439 42.5173H152.318L152.881 39.0761C152.94 38.7418 153.058 38.46 153.229 38.224C153.399 37.988 153.609 37.8111 153.858 37.6931C154.107 37.5685 154.376 37.5096 154.658 37.5096C155.064 37.5096 155.372 37.6341 155.562 37.8832C155.752 38.1322 155.818 38.4862 155.746 38.9385L155.149 42.5108H156.028L156.637 38.8729C156.716 38.3813 156.703 37.9749 156.591 37.6603C156.48 37.3391 156.29 37.1032 156.028 36.9524H156.015Z" fill="#1F2133"/>
<path d="M166.686 34.8877L163.986 38.4534H163.9L162.367 34.8877H161.305L163.317 39.3711L162.799 42.5173H163.723L164.241 39.3711L167.741 34.8877H166.686Z" fill="#1F2133"/>
<path d="M171.287 37.0967C170.933 36.8476 170.494 36.7166 169.97 36.7166C169.445 36.7166 168.999 36.8345 168.58 37.0771C168.16 37.3196 167.807 37.6539 167.525 38.093C167.243 38.5322 167.053 39.0369 166.961 39.6268C166.863 40.2298 166.889 40.7542 167.033 41.2065C167.177 41.6588 167.426 42.0127 167.78 42.2618C168.134 42.5109 168.573 42.6354 169.104 42.6354C169.635 42.6354 170.074 42.5174 170.494 42.2749C170.913 42.0324 171.261 41.6981 171.549 41.2655C171.831 40.8329 172.021 40.3282 172.119 39.7448C172.218 39.1418 172.192 38.6108 172.047 38.1586C171.903 37.7063 171.648 37.3524 171.3 37.1033L171.287 37.0967ZM171.261 39.6268C171.195 40.0201 171.071 40.3872 170.887 40.7214C170.704 41.0557 170.461 41.331 170.166 41.5342C169.871 41.7374 169.517 41.8423 169.117 41.8423C168.718 41.8423 168.436 41.744 168.226 41.5473C168.016 41.3507 167.872 41.0951 167.813 40.7739C167.748 40.4527 167.748 40.1119 167.813 39.7382C167.879 39.345 167.997 38.9779 168.18 38.6371C168.364 38.2962 168.606 38.0209 168.908 37.8112C169.209 37.6014 169.557 37.4966 169.963 37.4966C170.369 37.4966 170.645 37.5949 170.854 37.7915C171.064 37.9882 171.202 38.2503 171.267 38.5715C171.333 38.8927 171.333 39.2401 171.274 39.6137L171.261 39.6268Z" fill="#1F2133"/>
<path d="M176.996 40.1774C176.937 40.5379 176.813 40.8263 176.616 41.0622C176.426 41.2917 176.203 41.4621 175.961 41.5735C175.712 41.6849 175.482 41.7439 175.266 41.7439C174.899 41.7439 174.624 41.6194 174.427 41.3703C174.237 41.1212 174.171 40.787 174.237 40.374L174.833 36.7952H173.955L173.345 40.433C173.267 40.918 173.28 41.3244 173.385 41.6391C173.49 41.9602 173.667 42.1962 173.922 42.3535C174.178 42.5108 174.479 42.5895 174.84 42.5895C175.273 42.5895 175.646 42.4912 175.967 42.288C176.289 42.0848 176.538 41.8423 176.715 41.5473H176.774L176.61 42.5174H177.488L178.445 36.7952H177.567L177.003 40.1774H176.996Z" fill="#1F2133"/>
<path d="M182.464 36.71C182.123 36.71 181.796 36.7952 181.494 36.9721C181.192 37.1491 180.963 37.3785 180.812 37.6604H180.753L180.904 36.7952H180.052L179.102 42.5174H179.98L180.576 38.8992C180.622 38.6436 180.721 38.4076 180.878 38.211C181.035 38.0078 181.232 37.8505 181.468 37.7325C181.704 37.6145 181.959 37.5621 182.241 37.5621C182.359 37.5621 182.471 37.5686 182.576 37.5883C182.68 37.6014 182.746 37.6145 182.779 37.6211L182.929 36.7296C182.877 36.7231 182.805 36.7165 182.713 36.7165C182.621 36.7165 182.536 36.7165 182.471 36.7165L182.464 36.71Z" fill="#1F2133"/>
<path d="M191.608 35.3531C191.129 35.045 190.52 34.8877 189.779 34.8877H187.347L186.082 42.5173H188.468C189.241 42.5173 189.923 42.3666 190.513 42.065C191.103 41.7635 191.581 41.3309 191.948 40.7672C192.322 40.2035 192.571 39.5349 192.696 38.7484C192.833 37.9487 192.801 37.2605 192.61 36.6837C192.42 36.1069 192.086 35.6677 191.601 35.3531H191.608ZM191.817 38.6238C191.712 39.2531 191.522 39.7971 191.241 40.256C190.959 40.7148 190.592 41.0687 190.133 41.3178C189.674 41.5669 189.13 41.6914 188.501 41.6914H187.15L188.14 35.7005H189.648C190.244 35.7005 190.716 35.8185 191.077 36.0544C191.431 36.2904 191.673 36.6247 191.798 37.0573C191.922 37.4899 191.929 38.0143 191.824 38.6173L191.817 38.6238Z" fill="#1F2133"/>
<path d="M195.599 34.8091C195.474 34.6911 195.33 34.6321 195.16 34.6321C194.989 34.6321 194.839 34.6911 194.721 34.8091C194.596 34.927 194.537 35.0647 194.537 35.2286C194.537 35.3924 194.596 35.5301 194.721 35.6481C194.845 35.766 194.989 35.825 195.16 35.825C195.33 35.825 195.481 35.766 195.599 35.6481C195.717 35.5301 195.782 35.3924 195.782 35.2286C195.782 35.0647 195.723 34.927 195.599 34.8091Z" fill="#1F2133"/>
<path d="M193.502 42.5174H194.38L195.331 36.7952H194.452L193.502 42.5174Z" fill="#1F2133"/>
<path d="M200.725 37.7063H200.633C200.587 37.608 200.515 37.4769 200.423 37.3262C200.332 37.1689 200.187 37.0312 199.984 36.9067C199.781 36.7821 199.499 36.7231 199.126 36.7231C198.64 36.7231 198.201 36.8411 197.788 37.0837C197.382 37.3262 197.041 37.6605 196.766 38.0996C196.491 38.5388 196.3 39.0435 196.202 39.6334C196.104 40.2299 196.123 40.7346 196.268 41.1541C196.412 41.5736 196.648 41.8882 196.976 42.1045C197.303 42.3208 197.703 42.4322 198.169 42.4322C198.542 42.4322 198.844 42.3733 199.086 42.2553C199.329 42.1373 199.512 41.9996 199.656 41.8489C199.794 41.6981 199.906 41.567 199.984 41.4622H200.063L199.886 42.6223C199.807 43.1008 199.591 43.4482 199.243 43.6711C198.896 43.8939 198.496 44.0054 198.037 44.0054C197.69 44.0054 197.415 43.9529 197.225 43.8546C197.035 43.7563 196.89 43.6383 196.792 43.5007C196.7 43.363 196.622 43.245 196.563 43.1402L195.77 43.6318C195.861 43.8284 195.992 44.0185 196.163 44.1955C196.333 44.3724 196.569 44.5101 196.858 44.6215C197.146 44.7329 197.5 44.7854 197.933 44.7854C198.385 44.7854 198.811 44.7133 199.211 44.5691C199.611 44.4249 199.945 44.1955 200.22 43.8874C200.495 43.5793 200.672 43.1795 200.751 42.6879L201.721 36.8018H200.876L200.725 37.7129V37.7063ZM200.397 39.6137C200.325 40.0332 200.2 40.4003 200.023 40.7018C199.84 41.0033 199.617 41.2393 199.342 41.3966C199.067 41.5539 198.758 41.6391 198.404 41.6391C198.037 41.6391 197.742 41.5539 197.526 41.3835C197.31 41.2131 197.172 40.9706 197.1 40.669C197.028 40.3675 197.028 40.0136 197.094 39.6203C197.159 39.2336 197.277 38.8796 197.448 38.565C197.618 38.2504 197.834 37.9947 198.11 37.8047C198.385 37.6146 198.706 37.5228 199.08 37.5228C199.434 37.5228 199.722 37.6146 199.938 37.7916C200.161 37.9685 200.305 38.2176 200.391 38.5322C200.469 38.8469 200.476 39.2139 200.404 39.6269L200.397 39.6137Z" fill="#1F2133"/>
<path d="M202.377 42.5174H203.255L204.212 36.7952H203.334L202.377 42.5174Z" fill="#1F2133"/>
<path d="M204.041 34.6387C203.87 34.6387 203.719 34.6977 203.601 34.8156C203.477 34.9336 203.418 35.0713 203.418 35.2351C203.418 35.399 203.477 35.5367 203.601 35.6546C203.726 35.7726 203.87 35.8316 204.041 35.8316C204.211 35.8316 204.355 35.7726 204.48 35.6546C204.604 35.5367 204.663 35.399 204.663 35.2351C204.663 35.0713 204.604 34.9336 204.48 34.8156C204.355 34.6977 204.211 34.6387 204.041 34.6387Z" fill="#1F2133"/>
<path d="M207.312 35.4253H206.434L206.211 36.7952H205.352L205.234 37.5424H206.093L205.503 41.1147C205.451 41.449 205.477 41.7243 205.595 41.9406C205.713 42.1569 205.877 42.3208 206.1 42.4256C206.316 42.5305 206.552 42.5829 206.801 42.5829C206.965 42.5829 207.102 42.5698 207.214 42.5502C207.325 42.5239 207.417 42.5043 207.483 42.4781L207.424 41.6915C207.384 41.6981 207.338 41.7112 207.273 41.7177C207.207 41.7308 207.129 41.7374 207.037 41.7374C206.906 41.7374 206.788 41.7177 206.676 41.6784C206.565 41.6391 206.486 41.5539 206.427 41.4293C206.375 41.3048 206.368 41.1213 206.408 40.8722L206.965 37.5359H208.197L208.315 36.7886H207.089L207.319 35.4187L207.312 35.4253Z" fill="#1F2133"/>
<path d="M213.113 37.0508C212.909 36.9132 212.693 36.828 212.464 36.7821C212.234 36.7362 212.024 36.7166 211.841 36.7166C211.553 36.7166 211.251 36.7559 210.943 36.8345C210.635 36.9132 210.333 37.0508 210.052 37.2409C209.77 37.4376 209.527 37.7063 209.324 38.0537L210.097 38.3552C210.229 38.1455 210.438 37.9488 210.72 37.7653C211.002 37.5818 211.349 37.49 211.769 37.49C212.188 37.49 212.451 37.5949 212.608 37.7981C212.765 38.0013 212.811 38.2897 212.752 38.6502V38.6829C212.726 38.8206 212.66 38.9189 212.549 38.9779C212.437 39.0369 212.274 39.0762 212.051 39.1024C211.828 39.1287 211.546 39.1614 211.192 39.2073C210.923 39.2401 210.648 39.286 210.379 39.345C210.104 39.404 209.855 39.4892 209.619 39.6072C209.383 39.7251 209.186 39.889 209.022 40.0922C208.859 40.2954 208.747 40.5641 208.688 40.8919C208.629 41.2655 208.662 41.5801 208.8 41.8423C208.931 42.1045 209.134 42.3011 209.409 42.4453C209.684 42.583 209.999 42.6485 210.366 42.6485C210.7 42.6485 210.989 42.5961 211.238 42.4978C211.487 42.3994 211.69 42.2749 211.854 42.1373C212.018 41.9996 212.136 41.862 212.215 41.7374H212.26L212.129 42.5109H213.008L213.637 38.7419C213.709 38.2897 213.696 37.9226 213.591 37.6539C213.486 37.3851 213.335 37.1819 213.132 37.0443L213.113 37.0508ZM212.451 40.4462C212.411 40.6821 212.313 40.9115 212.149 41.1278C211.992 41.3441 211.775 41.5211 211.52 41.6588C211.258 41.7964 210.95 41.862 210.602 41.862C210.255 41.862 209.979 41.7833 209.776 41.626C209.58 41.4687 209.508 41.2393 209.56 40.9377C209.593 40.7149 209.684 40.5379 209.829 40.4068C209.973 40.2757 210.15 40.1774 210.36 40.1119C210.569 40.0463 210.792 40.0004 211.022 39.9677C211.113 39.9546 211.238 39.9414 211.395 39.9218C211.553 39.9021 211.71 39.8825 211.874 39.8562C212.038 39.83 212.188 39.7972 212.319 39.7645C212.451 39.7317 212.542 39.6858 212.582 39.6465L212.444 40.4527L212.451 40.4462Z" fill="#1F2133"/>
<path d="M214.594 42.5173H215.472L216.737 34.8877H215.859L214.594 42.5173Z" fill="#1F2133"/>
<path d="M225.409 35.2089C225.062 34.9926 224.59 34.8877 223.993 34.8877H221.417L220.152 42.5173H221.077L221.542 39.7316H223.207C223.797 39.7316 224.301 39.6202 224.714 39.4039C225.127 39.1875 225.462 38.8926 225.704 38.5255C225.947 38.1585 226.111 37.7521 226.183 37.3064C226.255 36.8541 226.235 36.4477 226.111 36.0806C225.986 35.7136 225.757 35.4252 225.409 35.2154V35.2089ZM225.278 37.2998C225.226 37.6013 225.127 37.8766 224.977 38.1191C224.819 38.3617 224.61 38.5517 224.334 38.696C224.059 38.8402 223.718 38.9057 223.312 38.9057H221.68L222.211 35.7005H223.836C224.249 35.7005 224.57 35.7726 224.793 35.9102C225.022 36.0479 225.167 36.238 225.245 36.4739C225.317 36.7164 225.331 36.9852 225.278 37.2933V37.2998Z" fill="#1F2133"/>
<path d="M231.158 37.0967C230.804 36.8476 230.365 36.7166 229.841 36.7166C229.316 36.7166 228.871 36.8345 228.451 37.0771C228.032 37.3196 227.678 37.6539 227.396 38.093C227.114 38.5322 226.924 39.0369 226.832 39.6268C226.734 40.2298 226.76 40.7542 226.904 41.2065C227.048 41.6588 227.297 42.0127 227.651 42.2618C228.005 42.5109 228.445 42.6354 228.975 42.6354C229.506 42.6354 229.946 42.5174 230.365 42.2749C230.785 42.0324 231.132 41.6981 231.42 41.2655C231.702 40.8329 231.892 40.3282 231.991 39.7448C232.089 39.1418 232.063 38.6108 231.918 38.1586C231.774 37.7063 231.519 37.3524 231.171 37.1033L231.158 37.0967ZM231.132 39.6268C231.066 40.0201 230.942 40.3872 230.758 40.7214C230.575 41.0557 230.332 41.331 230.037 41.5342C229.742 41.7374 229.388 41.8423 228.989 41.8423C228.589 41.8423 228.307 41.744 228.097 41.5473C227.887 41.3507 227.743 41.0951 227.684 40.7739C227.619 40.4527 227.619 40.1119 227.684 39.7382C227.75 39.345 227.868 38.9779 228.051 38.6371C228.235 38.2962 228.477 38.0209 228.779 37.8112C229.08 37.6014 229.428 37.4966 229.834 37.4966C230.24 37.4966 230.516 37.5949 230.726 37.7915C230.935 37.9882 231.073 38.2503 231.138 38.5715C231.204 38.8927 231.204 39.2401 231.145 39.6137L231.132 39.6268Z" fill="#1F2133"/>
<path d="M235.313 35.4253H234.435L234.205 36.7952H233.346L233.229 37.5424H234.087L233.497 41.1147C233.445 41.449 233.471 41.7243 233.589 41.9406C233.707 42.1569 233.871 42.3208 234.094 42.4256C234.317 42.5305 234.546 42.5829 234.795 42.5829C234.959 42.5829 235.097 42.5698 235.208 42.5502C235.319 42.5305 235.411 42.5043 235.477 42.4781L235.418 41.6915C235.378 41.6981 235.333 41.7112 235.267 41.7177C235.208 41.7308 235.129 41.7374 235.031 41.7374C234.9 41.7374 234.782 41.7177 234.671 41.6784C234.559 41.6391 234.48 41.5539 234.421 41.4293C234.369 41.3048 234.362 41.1213 234.402 40.8722L234.959 37.5359H236.191L236.309 36.7886H235.083L235.313 35.4187V35.4253Z" fill="#1F2133"/>
<path d="M241.481 37.3524C241.278 37.1295 241.042 36.9722 240.767 36.8673C240.491 36.769 240.203 36.7166 239.908 36.7166C239.397 36.7166 238.925 36.8411 238.492 37.0967C238.059 37.3458 237.706 37.6998 237.417 38.1455C237.129 38.5912 236.939 39.109 236.84 39.6989C236.742 40.2823 236.768 40.8001 236.906 41.2393C237.043 41.6784 237.299 42.0258 237.653 42.2683C238.014 42.5109 238.466 42.6354 239.01 42.6354C239.403 42.6354 239.757 42.5764 240.085 42.4519C240.413 42.3273 240.701 42.1635 240.95 41.9472C241.199 41.7309 241.389 41.4752 241.527 41.1868L240.721 40.9509C240.616 41.1475 240.485 41.3179 240.327 41.449C240.17 41.5801 239.993 41.6784 239.796 41.7505C239.6 41.8161 239.384 41.8488 239.148 41.8488C238.78 41.8488 238.466 41.7899 238.223 41.6653C237.981 41.5408 237.804 41.3376 237.706 41.0623C237.607 40.787 237.601 40.4199 237.666 39.9611H241.822L241.881 39.5875C241.973 39.0566 241.973 38.6043 241.894 38.2372C241.815 37.8702 241.671 37.5818 241.474 37.3589L241.481 37.3524ZM241.055 39.1942H237.797C237.85 38.9386 237.961 38.6961 238.132 38.447C238.322 38.1782 238.558 37.9554 238.846 37.7784C239.134 37.6014 239.442 37.5097 239.77 37.5097C240.098 37.5097 240.354 37.5818 240.563 37.7325C240.773 37.8767 240.917 38.0799 241.009 38.329C241.094 38.5846 241.107 38.873 241.048 39.1942H241.055Z" fill="#1F2133"/>
<path d="M247.275 36.9591C247.013 36.8018 246.685 36.7231 246.305 36.7231C245.873 36.7231 245.506 36.8149 245.198 36.9919C244.896 37.1689 244.654 37.4048 244.47 37.6932H244.398L244.549 36.8018H243.703L242.746 42.524H243.624L244.188 39.0828C244.247 38.7485 244.359 38.4667 244.522 38.2307C244.686 37.9947 244.889 37.8178 245.132 37.6998C245.375 37.5753 245.637 37.5163 245.919 37.5163C246.325 37.5163 246.626 37.6408 246.817 37.8964C247.007 38.1521 247.066 38.4995 246.994 38.9452L246.397 42.5175H247.275L247.885 38.8796C247.964 38.3946 247.951 37.9882 247.839 37.6736C247.728 37.3524 247.544 37.1164 247.275 36.9591Z" fill="#1F2133"/>
<path d="M251.327 35.4253H250.448L250.219 36.7952H249.36L249.242 37.5424H250.101L249.511 41.1147C249.458 41.449 249.485 41.7243 249.603 41.9406C249.721 42.1569 249.885 42.3208 250.107 42.4256C250.33 42.5305 250.56 42.5829 250.809 42.5829C250.973 42.5829 251.11 42.5698 251.222 42.5502C251.333 42.5305 251.425 42.5043 251.49 42.4781L251.431 41.6915C251.392 41.6981 251.346 41.7112 251.281 41.7177C251.222 41.7308 251.143 41.7374 251.045 41.7374C250.914 41.7374 250.796 41.7177 250.684 41.6784C250.573 41.6391 250.494 41.5539 250.435 41.4293C250.383 41.3048 250.376 41.1213 250.415 40.8722L250.973 37.5359H252.205L252.323 36.7886H251.097L251.327 35.4187V35.4253Z" fill="#1F2133"/>
<path d="M254.361 34.6387C254.191 34.6387 254.04 34.6977 253.922 34.8156C253.797 34.9336 253.738 35.0713 253.738 35.2351C253.738 35.399 253.797 35.5367 253.922 35.6546C254.046 35.7726 254.191 35.8316 254.361 35.8316C254.531 35.8316 254.676 35.7726 254.8 35.6546C254.925 35.5367 254.984 35.399 254.984 35.2351C254.984 35.0713 254.925 34.9336 254.8 34.8156C254.676 34.6977 254.531 34.6387 254.361 34.6387Z" fill="#1F2133"/>
<path d="M252.697 42.5174H253.582L254.533 36.7952H253.654L252.697 42.5174Z" fill="#1F2133"/>
<path d="M259.619 37.0508C259.415 36.9132 259.199 36.828 258.97 36.7821C258.74 36.7362 258.531 36.7166 258.347 36.7166C258.059 36.7166 257.757 36.7559 257.449 36.8345C257.141 36.9132 256.839 37.0508 256.558 37.2409C256.276 37.4376 256.033 37.7063 255.83 38.0537L256.603 38.3552C256.741 38.1455 256.944 37.9488 257.226 37.7653C257.508 37.5818 257.855 37.49 258.275 37.49C258.694 37.49 258.957 37.5949 259.114 37.7981C259.271 38.0013 259.317 38.2897 259.258 38.6502V38.6829C259.232 38.8206 259.166 38.9189 259.055 38.9779C258.944 39.0369 258.78 39.0762 258.557 39.1024C258.334 39.1287 258.046 39.1614 257.698 39.2073C257.429 39.2401 257.154 39.286 256.885 39.345C256.617 39.404 256.361 39.4892 256.125 39.6072C255.889 39.7251 255.692 39.889 255.529 40.0922C255.365 40.2954 255.253 40.5641 255.194 40.8919C255.135 41.2655 255.168 41.5801 255.299 41.8423C255.43 42.1045 255.633 42.3011 255.909 42.4453C256.184 42.583 256.499 42.6485 256.866 42.6485C257.2 42.6485 257.488 42.5961 257.737 42.4978C257.987 42.3994 258.19 42.2749 258.354 42.1373C258.517 41.9996 258.635 41.862 258.714 41.7374H258.76L258.622 42.5109H259.501L260.123 38.7419C260.202 38.2897 260.182 37.9226 260.084 37.6539C259.979 37.3851 259.828 37.1819 259.625 37.0443L259.619 37.0508ZM258.957 40.4462C258.917 40.6821 258.819 40.9115 258.655 41.1278C258.491 41.3441 258.281 41.5211 258.019 41.6588C257.757 41.7964 257.449 41.862 257.108 41.862C256.767 41.862 256.485 41.7833 256.282 41.626C256.086 41.4687 256.014 41.2393 256.059 40.9377C256.092 40.7149 256.184 40.5379 256.328 40.4068C256.472 40.2757 256.649 40.1774 256.859 40.1119C257.069 40.0463 257.292 40.0004 257.528 39.9677C257.619 39.9546 257.744 39.9414 257.901 39.9218C258.059 39.9021 258.216 39.8825 258.38 39.8562C258.544 39.83 258.694 39.7972 258.826 39.7645C258.957 39.7317 259.048 39.6858 259.088 39.6465L258.957 40.4527V40.4462Z" fill="#1F2133"/>
<path d="M261.1 42.5173H261.978L263.25 34.8877H262.365L261.1 42.5173Z" fill="#1F2133"/>
<path d="M264.35 41.2522C264.167 41.2522 264.009 41.3177 263.878 41.4422C263.741 41.5668 263.682 41.7241 263.682 41.9076C263.682 42.0912 263.754 42.255 263.878 42.3796C264.003 42.5107 264.16 42.5762 264.35 42.5762C264.475 42.5762 264.586 42.55 264.685 42.4844C264.783 42.4254 264.868 42.3468 264.927 42.2419C264.986 42.137 265.019 42.0256 265.019 41.9011C265.019 41.7241 264.96 41.5668 264.829 41.4357C264.691 41.3046 264.534 41.2456 264.35 41.2456V41.2522Z" fill="#1F2133"/>
<path d="M265.006 34.8877L264.174 40.3739H265.032L266.016 34.8877H265.006Z" fill="#1F2133"/>
<path d="M135.866 11.3501C135.518 11.3501 135.269 11.5074 135.132 11.822L131.494 22.788L128.053 11.9793C127.98 11.7893 127.882 11.6319 127.751 11.5205C127.62 11.4091 127.456 11.3501 127.266 11.3501C127.076 11.3501 126.905 11.4091 126.768 11.5205C126.63 11.6319 126.532 11.7893 126.479 11.9793L123.078 22.9846L119.374 11.822C119.302 11.6647 119.197 11.5467 119.06 11.4681C118.922 11.3894 118.778 11.3501 118.64 11.3501C118.378 11.3501 118.194 11.4419 118.089 11.6254C117.985 11.8089 117.965 12.0908 118.037 12.4775L122.284 25.1935C122.337 25.3508 122.429 25.4754 122.56 25.5606C122.691 25.6458 122.842 25.6917 123.019 25.6917C123.176 25.6917 123.32 25.6524 123.451 25.5737C123.582 25.495 123.681 25.3705 123.753 25.1935L127.2 14.0899L130.779 25.1935C130.812 25.3508 130.904 25.4754 131.041 25.5606C131.179 25.6458 131.336 25.6917 131.513 25.6917C131.703 25.6917 131.867 25.6458 131.998 25.5606C132.13 25.4754 132.221 25.3508 132.274 25.1935L136.495 12.4775C136.619 12.2153 136.619 11.9597 136.508 11.7172C136.397 11.4746 136.18 11.3501 135.866 11.3501Z" fill="#1F2133"/>
<path d="M147.796 12.1235C146.8 11.5205 145.652 11.219 144.361 11.219C143.07 11.219 141.89 11.5336 140.874 12.1629C139.858 12.7921 139.065 13.6508 138.488 14.7454C137.911 15.84 137.623 17.0985 137.623 18.534C137.623 19.9695 137.931 21.2083 138.541 22.3095C139.15 23.4107 139.996 24.2693 141.071 24.892C142.146 25.5147 143.371 25.8228 144.755 25.8228C145.574 25.8228 146.439 25.6589 147.337 25.3246C148.235 24.9903 148.969 24.5708 149.526 24.0661C149.703 23.9088 149.782 23.7318 149.775 23.5417C149.769 23.3517 149.664 23.1747 149.474 23.0174C149.336 22.8928 149.166 22.8404 148.963 22.847C148.759 22.8535 148.589 22.9322 148.451 23.0698C148.051 23.4565 147.501 23.7646 146.813 24.0006C146.124 24.2365 145.436 24.3545 144.755 24.3545C143.673 24.3545 142.709 24.1054 141.87 23.6073C141.031 23.1091 140.376 22.4209 139.904 21.5491C139.498 20.8019 139.281 19.9498 139.222 19.0059H150.208C150.437 19.0059 150.621 18.9404 150.759 18.8093C150.896 18.6782 150.968 18.5012 150.968 18.2718C150.968 16.8888 150.686 15.6696 150.129 14.6143C149.572 13.559 148.792 12.7266 147.796 12.1235ZM139.865 15.4926C140.31 14.6209 140.92 13.9326 141.7 13.4345C142.48 12.9363 143.365 12.6872 144.361 12.6872C145.41 12.6872 146.321 12.9363 147.101 13.4345C147.881 13.9326 148.478 14.6209 148.897 15.4926C149.205 16.135 149.389 16.856 149.454 17.6426H139.249C139.334 16.8494 139.544 16.135 139.865 15.4926Z" fill="#1F2133"/>
<path d="M164.929 12.1497C163.821 11.5139 162.563 11.1927 161.167 11.1927C159.908 11.1927 158.774 11.4614 157.771 12.0055C156.768 12.5495 155.982 13.2705 155.425 14.1816V6.0014C155.425 5.75888 155.353 5.56224 155.215 5.42459C155.077 5.28694 154.881 5.21484 154.638 5.21484C154.409 5.21484 154.225 5.28694 154.074 5.42459C153.924 5.56224 153.852 5.75888 153.852 6.0014V18.665C153.884 20.0284 154.225 21.2541 154.861 22.3356C155.497 23.4171 156.369 24.2758 157.47 24.905C158.571 25.5343 159.803 25.8489 161.167 25.8489C162.53 25.8489 163.821 25.5277 164.929 24.8919C166.037 24.2561 166.915 23.3778 167.551 22.2701C168.187 21.1623 168.508 19.9038 168.508 18.5077C168.508 17.1115 168.187 15.8596 167.551 14.7584C166.915 13.6572 166.037 12.7855 164.929 12.1497ZM166.174 21.5097C165.67 22.3946 164.981 23.0894 164.116 23.6072C163.251 24.125 162.268 24.3807 161.167 24.3807C160.065 24.3807 159.102 24.125 158.23 23.6072C157.358 23.0894 156.67 22.3946 156.172 21.5097C155.674 20.6248 155.425 19.6285 155.425 18.5077C155.425 17.3868 155.674 16.3905 156.172 15.5188C156.67 14.647 157.358 13.9522 158.23 13.4344C159.102 12.9166 160.085 12.6609 161.167 12.6609C162.248 12.6609 163.251 12.9166 164.116 13.4344C164.981 13.9522 165.67 14.647 166.174 15.5188C166.679 16.3905 166.935 17.3868 166.935 18.5077C166.935 19.6285 166.679 20.6248 166.174 21.5097Z" fill="#1F2133"/>
<path d="M181.302 12.1235C180.305 11.5205 179.158 11.219 177.867 11.219C176.576 11.219 175.396 11.5336 174.38 12.1629C173.364 12.7921 172.571 13.6508 171.994 14.7454C171.417 15.84 171.129 17.0985 171.129 18.534C171.129 19.9695 171.437 21.2083 172.047 22.3095C172.656 23.4107 173.502 24.2693 174.577 24.892C175.652 25.5147 176.877 25.8228 178.26 25.8228C179.08 25.8228 179.945 25.6589 180.843 25.3246C181.741 24.9903 182.475 24.5708 183.032 24.0661C183.209 23.9088 183.288 23.7318 183.281 23.5417C183.275 23.3517 183.17 23.1747 182.98 23.0174C182.842 22.8928 182.672 22.8404 182.468 22.847C182.265 22.8535 182.095 22.9322 181.957 23.0698C181.557 23.4565 181.007 23.7646 180.319 24.0006C179.63 24.2365 178.942 24.3545 178.26 24.3545C177.179 24.3545 176.215 24.1054 175.376 23.6073C174.537 23.1091 173.882 22.4209 173.41 21.5491C173.004 20.8019 172.787 19.9498 172.728 19.0059H183.714C183.943 19.0059 184.127 18.9404 184.264 18.8093C184.402 18.6782 184.474 18.5012 184.474 18.2718C184.474 16.8888 184.192 15.6696 183.635 14.6143C183.078 13.559 182.298 12.7266 181.302 12.1235ZM173.371 15.4926C173.816 14.6209 174.426 13.9326 175.206 13.4345C175.986 12.9363 176.871 12.6872 177.867 12.6872C178.916 12.6872 179.827 12.9363 180.607 13.4345C181.387 13.9326 181.983 14.6209 182.403 15.4926C182.711 16.135 182.895 16.856 182.96 17.6426H172.754C172.84 16.8494 173.043 16.135 173.371 15.4926Z" fill="#1F2133"/>
<path d="M195.336 15.1583L201.648 6.44712C201.753 6.30947 201.792 6.13905 201.766 5.94897C201.74 5.75888 201.668 5.58846 201.543 5.4377C201.419 5.28695 201.235 5.21484 200.993 5.21484C200.731 5.21484 200.514 5.32627 200.337 5.55569L194.202 14.0702L188.041 5.55569C187.864 5.32627 187.647 5.21484 187.385 5.21484C187.176 5.21484 187.005 5.28039 186.874 5.41148C186.743 5.54258 186.671 5.70644 186.664 5.89653C186.658 6.08661 186.71 6.27014 186.835 6.44712L193.088 15.1124L186.363 24.4069C186.225 24.6166 186.16 24.8198 186.179 25.0099C186.199 25.2 186.278 25.3639 186.428 25.495C186.579 25.626 186.756 25.6916 186.966 25.6916C187.208 25.6916 187.411 25.6064 187.569 25.4294L194.228 16.207L200.888 25.4294C200.96 25.5146 201.052 25.5802 201.176 25.626C201.301 25.6719 201.406 25.6916 201.491 25.6916C201.72 25.6916 201.897 25.6195 202.028 25.4687C202.159 25.318 202.232 25.1476 202.238 24.9444C202.245 24.7412 202.179 24.5642 202.041 24.4069L195.336 15.1583Z" fill="#1F2133"/>
<path d="M212.923 11.8614C211.999 11.4353 210.976 11.219 209.855 11.219C208.544 11.219 207.384 11.5402 206.368 12.176C205.352 12.8118 204.559 13.6835 203.982 14.7847C203.406 15.8859 203.117 17.1378 203.117 18.534C203.117 19.9301 203.425 21.1559 204.048 22.257C204.671 23.3582 205.516 24.23 206.591 24.8789C207.666 25.5278 208.885 25.849 210.249 25.849C212.156 25.849 213.742 25.2656 215.02 24.0923C215.178 23.9547 215.25 23.7843 215.243 23.5811C215.237 23.3779 215.145 23.2009 214.968 23.0436C214.83 22.9059 214.66 22.8404 214.47 22.8601C214.28 22.8797 214.103 22.9584 213.945 23.096C213.474 23.5352 212.916 23.8564 212.281 24.0661C211.645 24.2759 210.963 24.3807 210.249 24.3807C209.147 24.3807 208.184 24.1251 207.351 23.6073C206.519 23.0895 205.87 22.3947 205.398 21.5098C204.926 20.6249 204.69 19.6352 204.69 18.534C204.69 17.4328 204.907 16.3906 205.333 15.5188C205.759 14.6471 206.362 13.9523 207.142 13.4476C207.922 12.9429 208.826 12.6872 209.855 12.6872C211.586 12.6872 213.008 13.3493 214.129 14.6799C214.267 14.8568 214.437 14.9551 214.627 14.9814C214.817 15.0076 214.994 14.9617 215.152 14.8372C215.342 14.7126 215.46 14.5553 215.492 14.3652C215.525 14.1751 215.473 13.9916 215.335 13.8146C214.653 12.9429 213.847 12.2874 212.923 11.8614Z" fill="#1F2133"/>
<path d="M228.313 12.1235C227.317 11.5205 226.17 11.219 224.879 11.219C223.588 11.219 222.408 11.5336 221.392 12.1629C220.376 12.7921 219.583 13.6508 219.006 14.7454C218.429 15.84 218.141 17.0985 218.141 18.534C218.141 19.9695 218.449 21.2083 219.058 22.3095C219.668 23.4107 220.513 24.2693 221.588 24.892C222.663 25.5147 223.889 25.8228 225.272 25.8228C226.091 25.8228 226.957 25.6589 227.855 25.3246C228.753 24.9903 229.487 24.5708 230.044 24.0661C230.221 23.9088 230.3 23.7318 230.293 23.5417C230.286 23.3517 230.182 23.1747 229.991 23.0174C229.854 22.8928 229.683 22.8404 229.48 22.847C229.277 22.8535 229.107 22.9322 228.969 23.0698C228.569 23.4565 228.019 23.7646 227.33 24.0006C226.642 24.2365 225.954 24.3545 225.272 24.3545C224.191 24.3545 223.227 24.1054 222.388 23.6073C221.549 23.1091 220.894 22.4209 220.422 21.5491C220.015 20.8019 219.799 19.9498 219.74 19.0059H230.726C230.955 19.0059 231.139 18.9404 231.276 18.8093C231.414 18.6782 231.486 18.5012 231.486 18.2718C231.486 16.8888 231.204 15.6696 230.647 14.6143C230.09 13.559 229.31 12.7266 228.313 12.1235ZM220.382 15.4926C220.828 14.6209 221.438 13.9326 222.218 13.4345C222.998 12.9363 223.883 12.6872 224.879 12.6872C225.928 12.6872 226.839 12.9363 227.619 13.4345C228.399 13.9326 228.995 14.6209 229.415 15.4926C229.723 16.135 229.906 16.856 229.972 17.6426H219.766C219.851 16.8494 220.055 16.135 220.382 15.4926Z" fill="#1F2133"/>
<path d="M237.91 24.1185H237.254C236.71 24.1185 236.271 23.8628 235.93 23.345C235.589 22.8272 235.419 22.1717 235.419 21.3655V6.0014C235.419 5.75888 235.347 5.56224 235.209 5.42459C235.071 5.28694 234.875 5.21484 234.632 5.21484C234.403 5.21484 234.219 5.28694 234.069 5.42459C233.918 5.56224 233.846 5.75888 233.846 6.0014V21.3655C233.846 22.2242 233.99 22.9714 234.278 23.6203C234.567 24.2692 234.967 24.7739 235.484 25.141C236.002 25.5081 236.592 25.6916 237.254 25.6916H237.778C238.021 25.6916 238.218 25.6195 238.355 25.4687C238.493 25.318 238.565 25.1344 238.565 24.905C238.565 24.6625 238.506 24.4659 238.382 24.3282C238.257 24.1906 238.1 24.1185 237.91 24.1185Z" fill="#1F2133"/>
<path d="M244.462 24.1185H243.807C243.263 24.1185 242.824 23.8628 242.483 23.345C242.142 22.8272 241.972 22.1717 241.972 21.3655V6.0014C241.972 5.75888 241.899 5.56224 241.762 5.42459C241.624 5.28694 241.428 5.21484 241.185 5.21484C240.956 5.21484 240.772 5.28694 240.621 5.42459C240.471 5.56224 240.398 5.75888 240.398 6.0014V21.3655C240.398 22.2242 240.543 22.9714 240.831 23.6203C241.119 24.2692 241.519 24.7739 242.037 25.141C242.555 25.5081 243.145 25.6916 243.807 25.6916H244.331C244.574 25.6916 244.77 25.6195 244.908 25.4687C245.046 25.318 245.118 25.1344 245.118 24.905C245.118 24.6625 245.059 24.4659 244.934 24.3282C244.81 24.1906 244.652 24.1185 244.462 24.1185Z" fill="#1F2133"/>
<path d="M256.079 12.1235C255.083 11.5205 253.936 11.219 252.644 11.219C251.353 11.219 250.173 11.5336 249.157 12.1629C248.141 12.7921 247.348 13.6508 246.771 14.7454C246.195 15.84 245.906 17.0985 245.906 18.534C245.906 19.9695 246.214 21.2083 246.824 22.3095C247.433 23.4107 248.279 24.2693 249.354 24.892C250.429 25.5147 251.655 25.8228 253.038 25.8228C253.857 25.8228 254.722 25.6589 255.62 25.3246C256.518 24.9903 257.252 24.5708 257.81 24.0661C257.986 23.9088 258.065 23.7318 258.059 23.5417C258.052 23.3517 257.947 23.1747 257.757 23.0174C257.619 22.8928 257.449 22.8404 257.246 22.847C257.043 22.8535 256.872 22.9322 256.735 23.0698C256.335 23.4565 255.784 23.7646 255.096 24.0006C254.408 24.2365 253.719 24.3545 253.038 24.3545C251.956 24.3545 250.993 24.1054 250.154 23.6073C249.315 23.1091 248.659 22.4209 248.187 21.5491C247.781 20.8019 247.565 19.9498 247.506 19.0059H258.491C258.721 19.0059 258.904 18.9404 259.042 18.8093C259.179 18.6782 259.252 18.5012 259.252 18.2718C259.252 16.8888 258.97 15.6696 258.413 14.6143C257.855 13.559 257.075 12.7266 256.079 12.1235ZM248.148 15.4926C248.594 14.6209 249.203 13.9326 249.983 13.4345C250.763 12.9363 251.648 12.6872 252.644 12.6872C253.693 12.6872 254.604 12.9363 255.384 13.4345C256.164 13.9326 256.761 14.6209 257.18 15.4926C257.488 16.135 257.672 16.856 257.737 17.6426H247.532C247.617 16.8494 247.82 16.135 248.148 15.4926Z" fill="#1F2133"/>
<path d="M272.085 11.94C271.082 11.4221 269.948 11.1665 268.689 11.1665C267.569 11.1665 266.546 11.4156 265.622 11.9137C264.861 12.3201 264.232 12.8576 263.708 13.5065V12.1366C263.708 11.8941 263.636 11.6974 263.498 11.5598C263.36 11.4221 263.164 11.35 262.921 11.35C262.692 11.35 262.508 11.4221 262.358 11.5598C262.207 11.6974 262.135 11.8941 262.135 12.1366V24.9051C262.135 25.1345 262.207 25.318 262.358 25.4688C262.508 25.6195 262.692 25.6916 262.921 25.6916C263.164 25.6916 263.36 25.6195 263.498 25.4688C263.636 25.318 263.708 25.1345 263.708 24.9051V16.8822C263.708 16.0956 263.924 15.3877 264.363 14.7585C264.803 14.1292 265.392 13.6376 266.146 13.2771C266.9 12.9166 267.746 12.7396 268.689 12.7396C269.633 12.7396 270.512 12.9297 271.272 13.3033C272.032 13.6769 272.635 14.2406 273.081 14.9944C273.527 15.7482 273.75 16.6986 273.75 17.8523V24.9051C273.75 25.1345 273.822 25.318 273.972 25.4688C274.123 25.6195 274.307 25.6916 274.536 25.6916C274.766 25.6916 274.949 25.6195 275.1 25.4688C275.251 25.318 275.323 25.1345 275.323 24.9051V17.8523C275.323 16.4037 275.034 15.1845 274.458 14.1948C273.881 13.205 273.088 12.4578 272.085 11.94Z" fill="#1F2133"/>
<path d="M287.487 11.8614C286.563 11.4353 285.541 11.219 284.42 11.219C283.109 11.219 281.949 11.5402 280.933 12.176C279.917 12.8118 279.124 13.6835 278.547 14.7847C277.97 15.8859 277.682 17.1378 277.682 18.534C277.682 19.9301 277.99 21.1559 278.612 22.257C279.235 23.3582 280.081 24.23 281.156 24.8789C282.231 25.5278 283.45 25.849 284.813 25.849C286.72 25.849 288.307 25.2656 289.585 24.0923C289.742 23.9547 289.814 23.7843 289.808 23.5811C289.801 23.3779 289.709 23.2009 289.532 23.0436C289.395 22.9059 289.224 22.8404 289.034 22.8601C288.844 22.8797 288.667 22.9584 288.51 23.096C288.038 23.5352 287.481 23.8564 286.845 24.0661C286.209 24.2759 285.528 24.3807 284.813 24.3807C283.712 24.3807 282.748 24.1251 281.916 23.6073C281.084 23.0895 280.435 22.3947 279.963 21.5098C279.491 20.6249 279.255 19.6352 279.255 18.534C279.255 17.4328 279.471 16.3906 279.897 15.5188C280.323 14.6471 280.926 13.9523 281.706 13.4476C282.486 12.9429 283.391 12.6872 284.42 12.6872C286.15 12.6872 287.573 13.3493 288.693 14.6799C288.831 14.8568 289.002 14.9551 289.192 14.9814C289.382 15.0076 289.559 14.9617 289.716 14.8372C289.906 14.7126 290.024 14.5553 290.057 14.3652C290.09 14.1751 290.037 13.9916 289.9 13.8146C289.218 12.9429 288.412 12.2874 287.487 11.8614Z" fill="#1F2133"/>
<path d="M305.211 14.6143C304.654 13.559 303.874 12.7266 302.878 12.1235C301.882 11.5205 300.735 11.219 299.443 11.219C298.152 11.219 296.972 11.5336 295.956 12.1629C294.94 12.7921 294.147 13.6508 293.57 14.7454C292.993 15.84 292.705 17.0985 292.705 18.534C292.705 19.9695 293.013 21.2083 293.623 22.3095C294.232 23.4107 295.078 24.2693 296.153 24.892C297.228 25.5147 298.454 25.8228 299.837 25.8228C300.656 25.8228 301.521 25.6589 302.419 25.3246C303.317 24.9903 304.051 24.5708 304.608 24.0661C304.785 23.9088 304.864 23.7318 304.857 23.5417C304.851 23.3517 304.746 23.1747 304.556 23.0174C304.418 22.8928 304.248 22.8404 304.045 22.847C303.841 22.8535 303.671 22.9322 303.533 23.0698C303.134 23.4565 302.583 23.7646 301.895 24.0006C301.206 24.2365 300.518 24.3545 299.837 24.3545C298.755 24.3545 297.791 24.1054 296.953 23.6073C296.114 23.1091 295.458 22.4209 294.986 21.5491C294.58 20.8019 294.363 19.9498 294.304 19.0059H305.29C305.519 19.0059 305.703 18.9404 305.841 18.8093C305.978 18.6782 306.05 18.5012 306.05 18.2718C306.05 16.8888 305.769 15.6696 305.211 14.6143ZM294.947 15.4926C295.392 14.6209 296.002 13.9326 296.782 13.4345C297.562 12.9363 298.447 12.6872 299.443 12.6872C300.492 12.6872 301.403 12.9363 302.183 13.4345C302.963 13.9326 303.56 14.6209 303.979 15.4926C304.287 16.135 304.471 16.856 304.536 17.6426H294.331C294.416 16.8494 294.619 16.135 294.947 15.4926Z" fill="#1F2133"/>
</g>
<defs>
<linearGradient id="paint0_linear_1092_1810" x1="69.6537" y1="8.04449" x2="73.0743" y2="0.764678" gradientUnits="userSpaceOnUse">
<stop offset="0.1" stop-color="#333757"/>
<stop offset="0.12" stop-color="#3C3657"/>
<stop offset="0.21" stop-color="#78355B"/>
<stop offset="0.3" stop-color="#A7355E"/>
<stop offset="0.38" stop-color="#C93460"/>
<stop offset="0.44" stop-color="#DE3461"/>
<stop offset="0.48" stop-color="#E63462"/>
<stop offset="0.61" stop-color="#F0465C"/>
<stop offset="0.78" stop-color="#FA5856"/>
<stop offset="0.9" stop-color="#FE5F55"/>
</linearGradient>
<linearGradient id="paint1_linear_1092_1810" x1="60.304" y1="43.8336" x2="91.973" y2="22.1631" gradientUnits="userSpaceOnUse">
<stop stop-color="#31377D"/>
<stop offset="0.05" stop-color="#493679"/>
<stop offset="0.26" stop-color="#B93468"/>
<stop offset="0.35" stop-color="#E63462"/>
<stop offset="0.59" stop-color="#F55059"/>
<stop offset="0.75" stop-color="#FE5F55"/>
</linearGradient>
<linearGradient id="paint2_linear_1092_1810" x1="14.5678" y1="51.2009" x2="66.4127" y2="10.9164" gradientUnits="userSpaceOnUse">
<stop offset="0.09" stop-color="#31377D"/>
<stop offset="0.2" stop-color="#6A3674"/>
<stop offset="0.34" stop-color="#AC346A"/>
<stop offset="0.45" stop-color="#D63464"/>
<stop offset="0.5" stop-color="#E63462"/>
<stop offset="0.61" stop-color="#EA3B5F"/>
<stop offset="0.77" stop-color="#F55059"/>
<stop offset="0.86" stop-color="#FE5F55"/>
</linearGradient>
<linearGradient id="paint3_linear_1092_1810" x1="19.9837" y1="36.0745" x2="38.9042" y2="13.8152" gradientUnits="userSpaceOnUse">
<stop offset="0.04" stop-color="#31377D"/>
<stop offset="0.19" stop-color="#7C3571"/>
<stop offset="0.33" stop-color="#B53469"/>
<stop offset="0.42" stop-color="#D83463"/>
<stop offset="0.47" stop-color="#E63462"/>
<stop offset="0.9" stop-color="#FE5F55"/>
</linearGradient>
<clipPath id="clip0_1092_1810">
<rect width="315.328" height="49.8437" fill="white" transform="translate(0.722656 0.078125)"/>
</clipPath>
</defs>
</svg>
